<svg xmlns="http://www.w3.org/2000/svg" version="1.1" xmlns:xlink="http://www.w3.org/1999/xlink" xmlns:svgjs="http://svgjs.com/svgjs" width="2440" height="1050" preserveAspectRatio="none" viewBox="0 0 2440 1050"><g mask="url(&quot;#SvgjsMask1032&quot;)" fill="none"><path d="M1733.36 360.51L1777.81 360.51L1777.81 404.96L1733.36 404.96z" stroke="rgba(28, 83, 142, 0.4)"></path><path d="M556.5 752.27L600.4 752.27L600.4 833.28L556.5 833.28z" fill="rgba(28, 83, 142, 0.4)"></path><path d="M1597.73 635.44L1654.25 635.44L1654.25 691.96L1597.73 691.96z" fill="rgba(28, 83, 142, 0.4)"></path><path d="M2346.13 38.03a91.13 91.13 0 1 0-173.96-54.38z" stroke="rgba(28, 83, 142, 0.4)"></path><path d="M2484.1 269.72a78.71 78.71 0 1 0-118.37 103.77z" stroke="rgba(28, 83, 142, 0.4)"></path><path d="M489.98 91.66L495.42 91.66L495.42 97.1L489.98 97.1z" fill="rgba(28, 83, 142, 0.4)"></path><path d="M2266.46 876.65 a100.37 100.37 0 1 0 200.74 0 a100.37 100.37 0 1 0 -200.74 0z" fill="rgba(28, 83, 142, 0.4)"></path><path d="M1870.96 684.77L1910.92 684.77L1910.92 726.5L1870.96 726.5z" stroke="rgba(28, 83, 142, 0.4)"></path><path d="M1912.5 761.33a35.14 35.14 0 1 0-37.35 59.54z" fill="rgba(28, 83, 142, 0.4)"></path><path d="M951.74 476.85a39 39 0 1 0-53.61-56.66z" fill="rgba(28, 83, 142, 0.4)"></path><path d="M2183.94 49.02 a32.49 32.49 0 1 0 64.98 0 a32.49 32.49 0 1 0 -64.98 0z" stroke="rgba(28, 83, 142, 0.4)"></path><path d="M1007.2 16.92L1019.23 16.92L1019.23 28.95L1007.2 28.95z" fill="rgba(28, 83, 142, 0.4)"></path><path d="M1955.37 427.96 a58.71 58.71 0 1 0 117.42 0 a58.71 58.71 0 1 0 -117.42 0z" fill="rgba(28, 83, 142, 0.4)"></path><path d="M2294.61 125.96L2366.26 125.96L2366.26 176.25L2294.61 176.25z" stroke="rgba(28, 83, 142, 0.4)"></path><path d="M1412.84 425.56 a102.38 102.38 0 1 0 204.76 0 a102.38 102.38 0 1 0 -204.76 0z" stroke="rgba(28, 83, 142, 0.4)"></path><path d="M1023.55 757.81a14.94 14.94 0 1 0 29.46 5.02z" stroke="rgba(28, 83, 142, 0.4)"></path><path d="M2202.86 506.16L2254.28 506.16L2254.28 577.5L2202.86 577.5z" fill="rgba(28, 83, 142, 0.4)"></path><path d="M378.13 54.39a28.78 28.78 0 1 0-24.81-51.94z" stroke="rgba(28, 83, 142, 0.4)"></path><path d="M895.47 701.61L944.09 701.61L944.09 755.9L895.47 755.9z" fill="rgba(28, 83, 142, 0.4)"></path><path d="M1557.49 732.56 a10.97 10.97 0 1 0 21.94 0 a10.97 10.97 0 1 0 -21.94 0z" stroke="rgba(28, 83, 142, 0.4)"></path><path d="M2359.31 105.55a30.8 30.8 0 1 0 8.39-61.03z" fill="rgba(28, 83, 142, 0.4)"></path><path d="M2191.23 177.64 a80.49 80.49 0 1 0 160.98 0 a80.49 80.49 0 1 0 -160.98 0z" fill="rgba(28, 83, 142, 0.4)"></path><path d="M1536.87 929.02 a56.15 56.15 0 1 0 112.3 0 a56.15 56.15 0 1 0 -112.3 0z" stroke="rgba(28, 83, 142, 0.4)"></path><path d="M1657.55 1015.64 a42.83 42.83 0 1 0 85.66 0 a42.83 42.83 0 1 0 -85.66 0z" fill="rgba(28, 83, 142, 0.4)"></path><path d="M1563.57 830.7L1583.49 830.7L1583.49 889.24L1563.57 889.24z" fill="rgba(28, 83, 142, 0.4)"></path><path d="M1852.5 985.73L1902.36 985.73L1902.36 1035.59L1852.5 1035.59z" stroke="rgba(28, 83, 142, 0.4)"></path><path d="M864.71 809.72a34.2 34.2 0 1 0-14.04-66.94z" stroke="rgba(28, 83, 142, 0.4)"></path><path d="M1790.99 247.47L1860.22 247.47L1860.22 351.63L1790.99 351.63z" fill="rgba(28, 83, 142, 0.4)"></path><path d="M2037.05 911.83 a44.8 44.8 0 1 0 89.6 0 a44.8 44.8 0 1 0 -89.6 0z" fill="rgba(28, 83, 142, 0.4)"></path><path d="M902.19 128.7 a14.91 14.91 0 1 0 29.82 0 a14.91 14.91 0 1 0 -29.82 0z" fill="rgba(28, 83, 142, 0.4)"></path></g><defs><mask id="SvgjsMask1032"><rect width="2440" height="1050" fill="#ffffff"></rect></mask></defs></svg>