<svg xmlns="http://www.w3.org/2000/svg" version="1.1" xmlns:xlink="http://www.w3.org/1999/xlink" xmlns:svgjs="http://svgjs.com/svgjs" width="2440" height="1050" preserveAspectRatio="none" viewBox="0 0 2440 1050"><g mask="url(&quot;#SvgjsMask1067&quot;)" fill="none"><path d="M1795.19 290.3L1812.74 290.3L1812.74 307.85L1795.19 307.85z" stroke="rgba(28, 83, 142, 0.4)"></path><path d="M176.19 286.7a97.37 97.37 0 1 0 158.37-113.32z" stroke="rgba(28, 83, 142, 0.4)"></path><path d="M2405.8 250.96L2484.77 250.96L2484.77 326.22L2405.8 326.22z" fill="rgba(28, 83, 142, 0.4)"></path><path d="M1500.82 679.11L1559.55 679.11L1559.55 737.84L1500.82 737.84z" fill="rgba(28, 83, 142, 0.4)"></path><path d="M240.43 282.52L250.78 282.52L250.78 358.98L240.43 358.98z" fill="rgba(28, 83, 142, 0.4)"></path><path d="M1671.02 247.56L1725.68 247.56L1725.68 302.22L1671.02 302.22z" fill="rgba(28, 83, 142, 0.4)"></path><path d="M1869.9 857.31 a51.71 51.71 0 1 0 103.42 0 a51.71 51.71 0 1 0 -103.42 0z" stroke="rgba(28, 83, 142, 0.4)"></path><path d="M1178.8 696.94a14.73 14.73 0 1 0 3.35-29.27z" stroke="rgba(28, 83, 142, 0.4)"></path><path d="M1914.05 955.9 a44.86 44.86 0 1 0 89.72 0 a44.86 44.86 0 1 0 -89.72 0z" fill="rgba(28, 83, 142, 0.4)"></path><path d="M90.11 201.98a37.3 37.3 0 1 0 45.74-58.93z" stroke="rgba(28, 83, 142, 0.4)"></path><path d="M235.6 580.6L247.93 580.6L247.93 592.93L235.6 592.93z" stroke="rgba(28, 83, 142, 0.4)"></path><path d="M203.93 931.92L218.43 931.92L218.43 1026.34L203.93 1026.34z" fill="rgba(28, 83, 142, 0.4)"></path><path d="M535.35 65.79a86.78 86.78 0 1 0-64.11 161.29z" stroke="rgba(28, 83, 142, 0.4)"></path><path d="M427.05 944.39L518.37 944.39L518.37 1035.71L427.05 1035.71z" stroke="rgba(28, 83, 142, 0.4)"></path><path d="M1356.23 637.9L1356.39 637.9L1356.39 638.06L1356.23 638.06z" fill="rgba(28, 83, 142, 0.4)"></path><path d="M2255.57 585.79a76.65 76.65 0 1 0-145.71-47.63z" stroke="rgba(28, 83, 142, 0.4)"></path><path d="M2356.1 220.79L2445.52 220.79L2445.52 310.21L2356.1 310.21z" stroke="rgba(28, 83, 142, 0.4)"></path><path d="M1365.63 167.31 a14.25 14.25 0 1 0 28.5 0 a14.25 14.25 0 1 0 -28.5 0z" stroke="rgba(28, 83, 142, 0.4)"></path><path d="M1935.28 889.35L2036.11 889.35L2036.11 990.18L1935.28 990.18z" fill="rgba(28, 83, 142, 0.4)"></path><path d="M418.75 968.91 a82.57 82.57 0 1 0 165.14 0 a82.57 82.57 0 1 0 -165.14 0z" stroke="rgba(28, 83, 142, 0.4)"></path><path d="M599.13 12.93L658.48 12.93L658.48 72.28L599.13 72.28z" stroke="rgba(28, 83, 142, 0.4)"></path><path d="M1114.34 853.6L1125.09 853.6L1125.09 919.16L1114.34 919.16z" fill="rgba(28, 83, 142, 0.4)"></path><path d="M1121.41 385.79L1150.73 385.79L1150.73 415.11L1121.41 415.11z" fill="rgba(28, 83, 142, 0.4)"></path><path d="M1728.23 534.37L1760.29 534.37L1760.29 538.12L1728.23 538.12z" stroke="rgba(28, 83, 142, 0.4)"></path><path d="M1205.86 388.1L1210.03 388.1L1210.03 488.38L1205.86 488.38z" fill="rgba(28, 83, 142, 0.4)"></path><path d="M1863.55 691.94L1912.04 691.94L1912.04 793.67L1863.55 793.67z" stroke="rgba(28, 83, 142, 0.4)"></path><path d="M1864.55 819.21L1934.67 819.21L1934.67 889.33L1864.55 889.33z" stroke="rgba(28, 83, 142, 0.4)"></path><path d="M187.74 426.61L271.71 426.61L271.71 495.83L187.74 495.83z" fill="rgba(28, 83, 142, 0.4)"></path><path d="M248.21 1034.43a15.56 15.56 0 1 0-9.62-29.6z" stroke="rgba(28, 83, 142, 0.4)"></path><path d="M2061.86 922.71L2136.44 922.71L2136.44 997.29L2061.86 997.29z" stroke="rgba(28, 83, 142, 0.4)"></path></g><defs><mask id="SvgjsMask1067"><rect width="2440" height="1050" fill="#ffffff"></rect></mask></defs></svg>