<svg xmlns="http://www.w3.org/2000/svg" version="1.1" xmlns:xlink="http://www.w3.org/1999/xlink" xmlns:svgjs="http://svgjs.com/svgjs" width="2440" height="1050" preserveAspectRatio="none" viewBox="0 0 2440 1050"><g mask="url(&quot;#SvgjsMask1019&quot;)" fill="none"><path d="M670.84 549.85a34.12 34.12 0 1 0 61.06-30.45z" fill="rgba(28, 83, 142, 0.4)"></path><path d="M1836.18 834.08L1837.66 834.08L1837.66 835.56L1836.18 835.56z" fill="rgba(28, 83, 142, 0.4)"></path><path d="M206.82 525.24a65.81 65.81 0 1 0 49.85-121.81z" fill="rgba(28, 83, 142, 0.4)"></path><path d="M327.15 82.69L417.04 82.69L417.04 172.58L327.15 172.58z" stroke="rgba(28, 83, 142, 0.4)"></path><path d="M633.25 1041.73 a26.07 26.07 0 1 0 52.14 0 a26.07 26.07 0 1 0 -52.14 0z" fill="rgba(28, 83, 142, 0.4)"></path><path d="M-13.25 408.28 a60.36 60.36 0 1 0 120.72 0 a60.36 60.36 0 1 0 -120.72 0z" stroke="rgba(28, 83, 142, 0.4)"></path><path d="M1293.84 188.76a100.86 100.86 0 1 0 146.55-138.62z" stroke="rgba(28, 83, 142, 0.4)"></path><path d="M1820.54 614.18L1844.54 614.18L1844.54 636.27L1820.54 636.27z" stroke="rgba(28, 83, 142, 0.4)"></path><path d="M1721.01 342.76L1787.03 342.76L1787.03 447.59L1721.01 447.59z" stroke="rgba(28, 83, 142, 0.4)"></path><path d="M1587.57 1021.71a35.87 35.87 0 1 0 7.32-71.36z" stroke="rgba(28, 83, 142, 0.4)"></path><path d="M158.66 741a32.16 32.16 0 1 0-44.94 46.01z" fill="rgba(28, 83, 142, 0.4)"></path><path d="M1004.95 523.04L1016.04 523.04L1016.04 563.4L1004.95 563.4z" stroke="rgba(28, 83, 142, 0.4)"></path><path d="M1855.1 828.94 a5.94 5.94 0 1 0 11.88 0 a5.94 5.94 0 1 0 -11.88 0z" fill="rgba(28, 83, 142, 0.4)"></path><path d="M458.05 640.5L503.51 640.5L503.51 666.04L458.05 666.04z" stroke="rgba(28, 83, 142, 0.4)"></path><path d="M1721.68 940.01L1780.63 940.01L1780.63 998.96L1721.68 998.96z" fill="rgba(28, 83, 142, 0.4)"></path><path d="M1192.8 112.21L1228.1 112.21L1228.1 147.51L1192.8 147.51z" fill="rgba(28, 83, 142, 0.4)"></path><path d="M1105.65 674.25 a42.21 42.21 0 1 0 84.42 0 a42.21 42.21 0 1 0 -84.42 0z" fill="rgba(28, 83, 142, 0.4)"></path><path d="M1800.96 149.02a22.54 22.54 0 1 0 38.73-23.07z" stroke="rgba(28, 83, 142, 0.4)"></path><path d="M1948.55 575.49L2002.8 575.49L2002.8 629.74L1948.55 629.74z" stroke="rgba(28, 83, 142, 0.4)"></path><path d="M1756.58 867.16a78.9 78.9 0 1 0 87.19 131.52z" fill="rgba(28, 83, 142, 0.4)"></path><path d="M883.13 675.31L943.25 675.31L943.25 703.09L883.13 703.09z" stroke="rgba(28, 83, 142, 0.4)"></path><path d="M1535.46 707.74 a15.61 15.61 0 1 0 31.22 0 a15.61 15.61 0 1 0 -31.22 0z" stroke="rgba(28, 83, 142, 0.4)"></path><path d="M645.91 734.7L671.09 734.7L671.09 836.02L645.91 836.02z" fill="rgba(28, 83, 142, 0.4)"></path><path d="M1510.91 995.19L1526.46 995.19L1526.46 1010.74L1510.91 1010.74z" stroke="rgba(28, 83, 142, 0.4)"></path><path d="M2279.72 248.55L2350.08 248.55L2350.08 318.91L2279.72 318.91z" stroke="rgba(28, 83, 142, 0.4)"></path><path d="M1316.02 525.83L1379.61 525.83L1379.61 543.46L1316.02 543.46z" fill="rgba(28, 83, 142, 0.4)"></path><path d="M1384.98 141.21a39.81 39.81 0 1 0-74.09 29.16z" stroke="rgba(28, 83, 142, 0.4)"></path><path d="M133.33 813.69 a30.74 30.74 0 1 0 61.48 0 a30.74 30.74 0 1 0 -61.48 0z" stroke="rgba(28, 83, 142, 0.4)"></path><path d="M27.38 85.13L92.69 85.13L92.69 150.44L27.38 150.44z" stroke="rgba(28, 83, 142, 0.4)"></path><path d="M1888.23 999.75L1938.56 999.75L1938.56 1050.08L1888.23 1050.08z" fill="rgba(28, 83, 142, 0.4)"></path></g><defs><mask id="SvgjsMask1019"><rect width="2440" height="1050" fill="#ffffff"></rect></mask></defs></svg>