<svg width="1920" height="1024" viewBox="0 0 1920 1024" fill="none" xmlns="http://www.w3.org/2000/svg">
<g filter="url(#filter0_d)">
<path d="M1828.42 386.986H1839.36V395.193H1828.42V386.986Z" stroke="#1C538E" stroke-opacity="0.4"/>
<path d="M1420 803H1469.24V838.193H1420V803Z" fill="#1C538E" fill-opacity="0.4"/>
<path d="M1751 367H1785.08V392.56H1751V367Z" fill="#1C538E" fill-opacity="0.4"/>
<path d="M393.379 474.453H401.067V480.219H393.379V474.453Z" stroke="#1C538E" stroke-opacity="0.4"/>
<path d="M33.3333 697H42.374V741.153H33.3333V697Z" fill="#1C538E" fill-opacity="0.4"/>
<path d="M1092.09 501.248H1092.19V501.323H1092.09V501.248Z" fill="#1C538E" fill-opacity="0.4"/>
<path d="M924 920H930.703V950.657H924V920Z" fill="#1C538E" fill-opacity="0.4"/>
<path d="M305.663 999.882H323.944V1013.59H305.663V999.882Z" fill="#1C538E" fill-opacity="0.4"/>
<path d="M160 894H179.989V895.754H160V894Z" stroke="#1C538E" stroke-opacity="0.4"/>
<path d="M68 34H98.2335V81.5709H68V34Z" stroke="#1C538E" stroke-opacity="0.4"/>
<path d="M60.9417 744.936C62.1535 744.64 63.2759 744.169 64.2447 743.548C65.2136 742.927 66.0099 742.17 66.5883 741.318C67.1667 740.467 67.5158 739.538 67.6157 738.585C67.7156 737.633 67.5643 736.674 67.1704 735.766C66.7766 734.857 66.1479 734.015 65.3203 733.288C64.4927 732.562 63.4824 731.964 62.3471 731.531C61.2117 731.097 59.9735 730.835 58.7033 730.76C57.433 730.685 56.1555 730.799 54.9437 731.094L60.9417 744.936Z" stroke="#1C538E" stroke-opacity="0.4"/>
</g>
<defs>
<filter id="filter0_d" x="29.3333" y="33.5" width="1814.53" height="988.093" filterUnits="userSpaceOnUse" color-interpolation-filters="sRGB">
<feFlood flood-opacity="0" result="BackgroundImageFix"/>
<feColorMatrix in="SourceAlpha" type="matrix" values="0 0 0 0 0 0 0 0 0 0 0 0 0 0 0 0 0 0 127 0"/>
<feOffset dy="4"/>
<feGaussianBlur stdDeviation="2"/>
<feColorMatrix type="matrix" values="0 0 0 0 0 0 0 0 0 0 0 0 0 0 0 0 0 0 0.25 0"/>
<feBlend mode="normal" in2="BackgroundImageFix" result="effect1_dropShadow"/>
<feBlend mode="normal" in="SourceGraphic" in2="effect1_dropShadow" result="shape"/>
</filter>
</defs>
</svg>
