<svg width="1423" height="828" viewBox="0 0 1423 828" fill="none" xmlns="http://www.w3.org/2000/svg">
<path d="M-7.26709 425.325L-5.68631 420.751L28.107 432.429L26.5262 437.003L-7.26709 425.325Z" fill="#1C538E" fill-opacity="0.4"/>
<path d="M1401 98C1401 100.917 1402.16 103.715 1404.22 105.778C1406.28 107.841 1409.08 109 1412 109C1414.92 109 1417.72 107.841 1419.78 105.778C1421.84 103.715 1423 100.917 1423 98C1423 95.0826 1421.84 92.2847 1419.78 90.2218C1417.72 88.1589 1414.92 87 1412 87C1409.08 87 1406.28 88.1589 1404.22 90.2218C1402.16 92.2847 1401 95.0826 1401 98V98Z" fill="#1C538E" fill-opacity="0.4"/>
<path d="M295.034 468.453H300.8V474.219H295.034V468.453Z" stroke="#1C538E" stroke-opacity="0.4"/>
<path d="M819.067 495.248H819.142V495.323H819.067V495.248Z" fill="#1C538E" fill-opacity="0.4"/>
<path d="M1335.29 227C1335.87 225.195 1336.1 223.289 1335.96 221.391C1335.83 219.494 1335.34 217.642 1334.52 215.942C1333.7 214.243 1332.57 212.729 1331.19 211.489C1329.8 210.248 1328.2 209.305 1326.47 208.714C1324.73 208.123 1322.91 207.895 1321.09 208.044C1319.27 208.193 1317.5 208.715 1315.88 209.581C1314.25 210.447 1312.81 211.64 1311.63 213.09C1310.45 214.54 1309.56 216.22 1309 218.032L1335.29 227Z" stroke="#1C538E" stroke-opacity="0.4"/>
<path d="M1109 1H1150.81V42.8145H1109V1Z" stroke="#1C538E" stroke-opacity="0.4"/>
<path d="M1336 501.664C1336 503.431 1336.7 505.126 1337.95 506.375C1339.2 507.625 1340.9 508.327 1342.66 508.327C1344.43 508.327 1346.13 507.625 1347.38 506.375C1348.63 505.126 1349.33 503.431 1349.33 501.664C1349.33 499.896 1348.63 498.201 1347.38 496.952C1346.13 495.702 1344.43 495 1342.66 495C1340.9 495 1339.2 495.702 1337.95 496.952C1336.7 498.201 1336 499.896 1336 501.664V501.664Z" stroke="#1C538E" stroke-opacity="0.4"/>
<path d="M723 3H724.95V49.8928H723V3Z" fill="#1C538E" fill-opacity="0.4"/>
<path d="M1349.27 791.763H1384.14V826.638H1349.27V791.763Z" stroke="#1C538E" stroke-opacity="0.4"/>
</svg>
