<?xml version="1.0" encoding="utf-8"?><svg xmlns="http://www.w3.org/2000/svg" xmlns:xlink="http://www.w3.org/1999/xlink" width="2048" height="988" preserveAspectRatio="xMidYMid" viewBox="0 0 2048 988" style="z-index:1;margin-right:-2px;display:block;background-repeat-y:initial;background-repeat-x:initial;background-color:#F1F2F3;animation-play-state:paused" ><g transform="translate(1024,494) scale(1,1) translate(-1024,-494)" style="animation-play-state:paused" ><defs style="animation-play-state:paused" ><path id="path-c9401a2ex6-1" d="M-35 -35L35 -35L35 35L-35 35Z" fill="none" stroke="inherit" stroke-width="4.333333333333334" transform="scale(0.3)" style="animation-play-state:paused" ></path>

  
<path id="path-c9401a2ex6-2" d="M0 -37A37 37 0 0 1 0 37A37 37 0 0 1 0 -37" fill="none" stroke="inherit" stroke-width="4.333333333333334" transform="scale(0.7)" style="animation-play-state:paused" ></path>

  
<path id="path-c9401a2ex6-3" d="M0 -34.641L40 34.641L-40 34.641Z" fill="none" stroke="inherit" stroke-width="4.333333333333334" transform="scale(0.7)" style="animation-play-state:paused" ></path></defs>
<path id="path0" d="M 78.00771606314235 372.82878133818065
c 0 20.141062684704877 -4.928132359023533 5.785198856245018 -10.713331215268552 5.785198856245018
S 56.58105363260525 392.9698440228855 56.58105363260525 372.82878133818065
s 4.928132359023533 -5.785198856245018 10.713331215268552 -5.785198856245018
S 78.00771606314235 352.68771865347577 78.00771606314235 372.82878133818065
z" fill="none" stroke="none" style="animation-play-state:paused" ></path>


<use xlink:href="#path-c9401a2ex6-3" x="0" y="0" stroke="#689cc5" transform="translate(76.3311538696289 383.4193420410156)" style="animation-play-state:paused" ></use>
<path id="path1" d="M 188.266299265896 395.27736647449603
c 0 21.75930980155849 -5.324086440806864 6.250014517468928 -11.574100958275793 6.250014517468928
S 165.11809734934445 417.03667627605455 165.11809734934445 395.27736647449603
s 5.324086440806864 -6.250014517468928 11.574100958275793 -6.250014517468928
S 188.266299265896 373.5180566729375 188.266299265896 395.27736647449603
z" fill="none" stroke="none" style="animation-play-state:paused" ></path>


<use xlink:href="#path-c9401a2ex6-1" x="0" y="0" stroke="#93dbe9" transform="translate(188.1553497314453 400.0146789550781)" style="animation-play-state:paused" ></use>
<path id="path2" d="M 289.7882220851823 591.4002021653553
c 0 20.62233402302738 -5.045890239676912 5.923436368316376 -10.969326607993288 5.923436368316376
S 267.8495688691957 612.0225361883827 267.8495688691957 591.4002021653553
s 5.045890239676912 -5.923436368316376 10.969326607993288 -5.923436368316376
S 289.7882220851823 570.7778681423279 289.7882220851823 591.4002021653553
z" fill="none" stroke="none" style="animation-play-state:paused" ></path>


<use xlink:href="#path-c9401a2ex6-2" x="0" y="0" stroke="#5e6fa3" transform="translate(277.3426513671875 597.607177734375)" style="animation-play-state:paused" ></use>
<path id="path3" d="M 436.50610279344926 933.6676542981118
c 0 57.315520259941145 -14.024010276368577 16.462968585302246 -30.48697886167082 16.462968585302246
S 375.5321450701076 990.983174558053 375.5321450701076 933.6676542981118
s 14.024010276368577 -16.462968585302246 30.48697886167082 -16.462968585302246
S 436.50610279344926 876.3521340381706 436.50610279344926 933.6676542981118
z" fill="none" stroke="none" style="animation-play-state:paused" ></path>


<use xlink:href="#path-c9401a2ex6-3" x="0" y="0" stroke="#93dbe9" transform="translate(409.4671936035156 950.6932373046875)" style="animation-play-state:paused" ></use>
<path id="path4" d="M 500.00265287464225 893.7450720687901
c 0 45.67119467006175 -11.174866780972556 13.11832187331561 -24.293188654288166 13.11832187331561
S 451.41627556606596 939.4162667388518 451.41627556606596 893.7450720687901
s 11.174866780972556 -13.11832187331561 24.293188654288166 -13.11832187331561
S 500.00265287464225 848.0738773987284 500.00265287464225 893.7450720687901
z" fill="none" stroke="none" style="animation-play-state:paused" ></path>


<use xlink:href="#path-c9401a2ex6-2" x="0" y="0" stroke="#93dbe9" transform="translate(481.3390808105469 908.6221313476562)" style="animation-play-state:paused" ></use>
<path id="path5" d="M 669.5592933927835 250.04028058893138
c 0 40.789379300384596 -9.980380041583464 11.716098309684936 -21.6964783512684 11.716098309684936
S 626.1663366902467 290.82965988931596 626.1663366902467 250.04028058893138
s 9.980380041583464 -11.716098309684936 21.6964783512684 -11.716098309684936
S 669.5592933927835 209.2509012885468 669.5592933927835 250.04028058893138
z" fill="none" stroke="none" style="animation-play-state:paused" ></path>


<use xlink:href="#path-c9401a2ex6-3" x="0" y="0" stroke="#689cc5" transform="translate(650.7227172851562 262.2947082519531)" style="animation-play-state:paused" ></use>
<path id="path6" d="M 777.5635035171186 230.65003108184933
c 0 63.06066658700579 -15.429737569160988 18.11317018988464 -33.54290775904563 18.11317018988464
S 710.4776879990274 293.7106976688551 710.4776879990274 230.65003108184933
s 15.429737569160988 -18.11317018988464 33.54290775904563 -18.11317018988464
S 777.5635035171186 167.58936449484355 777.5635035171186 230.65003108184933
z" fill="none" stroke="none" style="animation-play-state:paused" ></path>


<use xlink:href="#path-c9401a2ex6-3" x="0" y="0" stroke="#93dbe9" transform="translate(777.5389404296875 234.8379669189453)" style="animation-play-state:paused" ></use>
<path id="path7" d="M 889.3292384674054 755.4256278299671
c 0 57.43676692692774 -14.05367701403551 16.497794755606904 -30.55147176964241 16.497794755606904
S 828.2262949281206 812.8623947568948 828.2262949281206 755.4256278299671
s 14.05367701403551 -16.497794755606904 30.55147176964241 -16.497794755606904
S 889.3292384674054 697.9888609030394 889.3292384674054 755.4256278299671
z" fill="none" stroke="none" style="animation-play-state:paused" ></path>


<use xlink:href="#path-c9401a2ex6-3" x="0" y="0" stroke="#5e6fa3" transform="translate(880.1497192382812 785.1629028320312)" style="animation-play-state:paused" ></use>
<path id="path8" d="M 953.323631451979 85.50265808982206
c 0 60.410088352509135 -14.781191830933086 17.351833888486667 -32.13302571941975 17.351833888486667
S 889.0575800131396 145.91274644233118 889.0575800131396 85.50265808982206
s 14.781191830933086 -17.351833888486667 32.13302571941975 -17.351833888486667
S 953.323631451979 25.092569737312928 953.323631451979 85.50265808982206
z" fill="none" stroke="none" style="animation-play-state:paused" ></path>


<use xlink:href="#path-c9401a2ex6-1" x="0" y="0" stroke="#5e6fa3" transform="translate(953.3192749023438 87.17515563964844)" style="animation-play-state:paused" ></use>
<path id="path9" d="M 1126.1995880026257 446.8851262347298
c 0 47.26714112115397 -11.565364316878098 13.576732024161247 -25.142096341039345 13.576732024161247
S 1075.9153953205468 494.15226735588374 1075.9153953205468 446.8851262347298
s 11.565364316878098 -13.576732024161247 25.142096341039345 -13.576732024161247
S 1126.1995880026257 399.61798511357586 1126.1995880026257 446.8851262347298
z" fill="none" stroke="none" style="animation-play-state:paused" ></path>


<use xlink:href="#path-c9401a2ex6-2" x="0" y="0" stroke="#5e6fa3" transform="translate(1125.864013671875 458.7138366699219)" style="animation-play-state:paused" ></use>
<path id="path10" d="M 1188.8570679546538 747.138675512694
c 0 37.94693143953272 -9.284887479885663 10.89965051986578 -20.184537999751445 10.89965051986578
S 1148.4879919551508 785.0856069522267 1148.4879919551508 747.138675512694
s 9.284887479885663 -10.89965051986578 20.184537999751445 -10.89965051986578
S 1188.8570679546538 709.1917440731613 1188.8570679546538 747.138675512694
z" fill="none" stroke="none" style="animation-play-state:paused" ></path>


<use xlink:href="#path-c9401a2ex6-3" x="0" y="0" stroke="#689cc5" transform="translate(1176.9283447265625 762.0850219726562)" style="animation-play-state:paused" ></use>
<path id="path11" d="M 1376.8300064590019 38.342791756765564
c 0 35.04377468062804 -8.574540613345158 10.065765067839969 -18.640305681185126 10.065765067839969
S 1339.5493950966318 73.38656643739361 1339.5493950966318 38.342791756765564
s 8.574540613345158 -10.065765067839969 18.640305681185126 -10.065765067839969
S 1376.8300064590019 3.299017076137524 1376.8300064590019 38.342791756765564
z" fill="none" stroke="none" style="animation-play-state:paused" ></path>


<use xlink:href="#path-c9401a2ex6-1" x="0" y="0" stroke="#93dbe9" transform="translate(1376.471923828125 48.50518798828125)" style="animation-play-state:paused" ></use>
<path id="path12" d="M 1402.5479022010813 38.93127586539455
c 0 64.55590980193018 -15.795594951536106 18.542654943107607 -34.33824989464371 18.542654943107607
S 1333.871402411794 103.48718566732472 1333.871402411794 38.93127586539455
s 15.795594951536106 -18.542654943107607 34.33824989464371 -18.542654943107607
S 1402.5479022010813 -25.624633936535638 1402.5479022010813 38.93127586539455
z" fill="none" stroke="none" style="animation-play-state:paused" ></path>


<use xlink:href="#path-c9401a2ex6-1" x="0" y="0" stroke="#93dbe9" transform="translate(1347.9564208984375 69.66654968261719)" style="animation-play-state:paused" ></use>
<path id="path13" d="M 1537.5941249772309 521.1886309293151
c 0 27.44319265822152 -6.714823735522287 7.882619167787032 -14.597442903309318 7.882619167787032
S 1508.3992391706124 548.6318235875366 1508.3992391706124 521.1886309293151
s 6.714823735522287 -7.882619167787032 14.597442903309318 -7.882619167787032
S 1537.5941249772309 493.7454382710936 1537.5941249772309 521.1886309293151
z" fill="none" stroke="none" style="animation-play-state:paused" ></path>


<use xlink:href="#path-c9401a2ex6-3" x="0" y="0" stroke="#93dbe9" transform="translate(1520.4453125 529.6929931640625)" style="animation-play-state:paused" ></use>
<path id="path14" d="M 1706.1104502460826 611.2307742447638
c 0 32.52502591877591 -7.958251022679212 9.342294678797337 -17.300545701476548 9.342294678797337
S 1671.5093588431296 643.7558001635397 1671.5093588431296 611.2307742447638
s 7.958251022679212 -9.342294678797337 17.300545701476548 -9.342294678797337
S 1706.1104502460826 578.7057483259879 1706.1104502460826 611.2307742447638
z" fill="none" stroke="none" style="animation-play-state:paused" ></path>


<use xlink:href="#path-c9401a2ex6-3" x="0" y="0" stroke="#689cc5" transform="translate(1705.8734130859375 619.4625244140625)" style="animation-play-state:paused" ></use>
<path id="path15" d="M 1779.8142721827705 678.6632698967279
c 0 23.49802116586703 -5.749515817180231 6.7494316114724455 -12.498947428652675 6.7494316114724455
S 1754.8163773254653 702.161291062595 1754.8163773254653 678.6632698967279
s 5.749515817180231 -6.7494316114724455 12.498947428652675 -6.7494316114724455
S 1779.8142721827705 655.1652487308609 1779.8142721827705 678.6632698967279
z" fill="none" stroke="none" style="animation-play-state:paused" ></path>


<use xlink:href="#path-c9401a2ex6-3" x="0" y="0" stroke="#93dbe9" transform="translate(1760.8323974609375 689.09521484375)" style="animation-play-state:paused" ></use>
<path id="path16" d="M 1942.1331788114965 920.1883703759524
c 0 54.33892590694051 -13.29569463680459 15.60798935624887 -28.903683993053463 15.60798935624887
S 1884.3258108253897 974.527296282893 1884.3258108253897 920.1883703759524
s 13.29569463680459 -15.60798935624887 28.903683993053463 -15.60798935624887
S 1942.1331788114965 865.8494444690119 1942.1331788114965 920.1883703759524
z" fill="none" stroke="none" style="animation-play-state:paused" ></path>


<use xlink:href="#path-c9401a2ex6-3" x="0" y="0" stroke="#93dbe9" transform="translate(1941.843505859375 932.2550048828125)" style="animation-play-state:paused" ></use>
<path id="path17" d="M 1942.2755365642645 111.76818338767762
c 0 25.588837229797235 -6.261098471120599 7.349985161750269 -13.61108363287087 7.349985161750269
S 1915.053369298523 137.35702061747486 1915.053369298523 111.76818338767762
s 6.261098471120599 -7.349985161750269 13.61108363287087 -7.349985161750269
S 1942.2755365642645 86.17934615788039 1942.2755365642645 111.76818338767762
z" fill="none" stroke="none" style="animation-play-state:paused" ></path>


<use xlink:href="#path-c9401a2ex6-1" x="0" y="0" stroke="#93dbe9" transform="translate(1941.823974609375 120.87914276123047)" style="animation-play-state:paused" ></use></g></svg>