<svg xmlns="http://www.w3.org/2000/svg" version="1.1" xmlns:xlink="http://www.w3.org/1999/xlink" xmlns:svgjs="http://svgjs.com/svgjs" width="1440" height="400" preserveAspectRatio="none" viewBox="0 0 1440 400"><g mask="url(&quot;#SvgjsMask1009&quot;)" fill="none"><rect width="1440" height="400" x="0" y="0" fill="#0e2a47"></rect><path d="M11 400L411 0L597 0L197 400z" fill="url(#SvgjsLinearGradient1010)"></path><path d="M265.6 400L665.6 0L973.1 0L573.1 400z" fill="url(#SvgjsLinearGradient1010)"></path><path d="M518.2 400L918.2 0L976.7 0L576.7 400z" fill="url(#SvgjsLinearGradient1010)"></path><path d="M738.8000000000001 400L1138.8000000000002 0L1371.3000000000002 0L971.3000000000001 400z" fill="url(#SvgjsLinearGradient1010)"></path><path d="M1402 400L1002 0L898.5 0L1298.5 400z" fill="url(#SvgjsLinearGradient1011)"></path><path d="M1189.4 400L789.4000000000001 0L460.9000000000001 0L860.9000000000001 400z" fill="url(#SvgjsLinearGradient1011)"></path><path d="M925.8 400L525.8 0L285.79999999999995 0L685.8 400z" fill="url(#SvgjsLinearGradient1011)"></path><path d="M707.1999999999999 400L307.19999999999993 0L-48.30000000000007 0L351.69999999999993 400z" fill="url(#SvgjsLinearGradient1011)"></path><path d="M1198.8654986893682 400L1440 158.86549868936814L1440 400z" fill="url(#SvgjsLinearGradient1010)"></path><path d="M0 400L241.13450131063186 400L 0 158.86549868936814z" fill="url(#SvgjsLinearGradient1011)"></path></g><defs><mask id="SvgjsMask1009"><rect width="1440" height="400" fill="#ffffff"></rect></mask><linearGradient x1="0%" y1="100%" x2="100%" y2="0%" id="SvgjsLinearGradient1010"><stop stop-color="rgba(15, 70, 185, 0.2)" offset="0"></stop><stop stop-opacity="0" stop-color="rgba(15, 70, 185, 0.2)" offset="0.66"></stop></linearGradient><linearGradient x1="100%" y1="100%" x2="0%" y2="0%" id="SvgjsLinearGradient1011"><stop stop-color="rgba(15, 70, 185, 0.2)" offset="0"></stop><stop stop-opacity="0" stop-color="rgba(15, 70, 185, 0.2)" offset="0.66"></stop></linearGradient></defs></svg>